
<!-- Generator: visioncortex VTracer 0.6.4 -->
<svg version="1.1" xmlns="http://www.w3.org/2000/svg" viewBox="0 0 288 288" preserveAspectRatio="xMidYMid meet">
<path d="M0 0 C95.04 0 190.08 0 288 0 C288 95.04 288 190.08 288 288 C192.96 288 97.92 288 0 288 C0 192.96 0 97.92 0 0 Z " fill="#010101" transform="translate(0,0)"/>
<path d="M0 0 C0.152 7.475 0.257 14.949 0.33 22.424 C0.36 24.968 0.401 27.511 0.453 30.054 C0.525 33.708 0.559 37.361 0.586 41.016 C0.617 42.154 0.648 43.293 0.68 44.466 C0.681 47.432 0.635 50.103 0 53 C-2.905 55.66 -2.905 55.66 -6 57 C-13.525 62.11 -20.826 67.526 -28.135 72.937 C-30.421 74.628 -32.71 76.314 -35 78 C-36.024 78.763 -36.024 78.763 -37.069 79.542 C-41.774 83 -41.774 83 -44 83 C-44 78.05 -44 73.1 -44 68 C-50.994 72.325 -57.616 76.89 -64.156 81.871 C-67.283 84.212 -70.486 86.381 -73.754 88.516 C-77.898 91.254 -81.942 94.137 -86 97 C-85.391 96.988 -84.782 96.977 -84.155 96.965 C-71.323 96.829 -62.753 96.973 -53 106 C-51.106 107.305 -49.188 108.575 -47.25 109.812 C-38.754 115.425 -30.587 121.504 -22.484 127.668 C-21.937 128.083 -21.39 128.498 -20.826 128.926 C-19.344 130.053 -17.867 131.187 -16.391 132.32 C-14.031 134.149 -14.031 134.149 -11 135 C-11 135.66 -11 136.32 -11 137 C-10.227 137.34 -10.227 137.34 -9.438 137.688 C-8.633 138.121 -7.829 138.554 -7 139 C-5.809 139.567 -4.618 140.134 -3.39 140.718 C-0.773 142.624 -0.086 143.607 0.616 146.81 C0.812 150.502 0.786 154.135 0.684 157.832 C0.671 159.192 0.661 160.553 0.654 161.913 C0.627 165.483 0.558 169.051 0.481 172.621 C0.409 176.267 0.377 179.914 0.342 183.561 C0.267 190.708 0.147 197.854 0 205 C-3.728 203.223 -6.833 200.923 -10.062 198.375 C-14.102 195.227 -18.158 192.121 -22.312 189.125 C-23.183 188.475 -24.053 187.826 -24.949 187.156 C-27.336 185.469 -29.704 183.965 -32.207 182.469 C-43.316 175.495 -43.316 175.495 -44.582 170.877 C-44.756 168.534 -44.743 166.284 -44.625 163.938 C-44.217 158.396 -44.217 158.396 -46.061 153.33 C-49.205 150.091 -52.988 147.746 -56.812 145.388 C-60.04 143.341 -63.095 141.072 -66.176 138.812 C-68.46 137.138 -70.76 135.49 -73.066 133.848 C-76.124 131.655 -79.081 129.375 -82 127 C-83.331 125.996 -84.664 124.996 -86 124 C-86.198 128.874 -86.343 133.746 -86.439 138.624 C-86.48 140.281 -86.534 141.938 -86.604 143.594 C-87.334 152.891 -87.334 152.891 -84.395 161.342 C-82.322 162.93 -80.4 163.986 -78 165 C-69.863 169.348 -69.863 169.348 -67 173 C-65.647 178.9 -66.37 185.042 -67 191 C-67.66 191 -68.32 191 -69 191 C-69 191.66 -69 192.32 -69 193 C-71.443 194.878 -73.896 196.638 -76.438 198.375 C-78.001 199.461 -79.565 200.547 -81.129 201.633 C-81.936 202.19 -82.743 202.747 -83.575 203.321 C-87.358 205.94 -91.116 208.595 -94.875 211.25 C-95.581 211.745 -96.287 212.24 -97.014 212.75 C-100.175 214.972 -103.308 217.212 -106.371 219.566 C-107.342 220.308 -108.312 221.049 -109.312 221.812 C-110.134 222.458 -110.955 223.104 -111.801 223.77 C-114 225 -114 225 -115.895 224.977 C-118.988 223.542 -121.648 221.584 -124.375 219.562 C-125.633 218.647 -126.891 217.732 -128.148 216.816 C-129.109 216.113 -129.109 216.113 -130.089 215.395 C-133.042 213.239 -136.021 211.121 -139 209 C-140.154 208.176 -141.307 207.352 -142.461 206.527 C-144.924 204.768 -147.387 203.011 -149.852 201.254 C-150.799 200.578 -150.799 200.578 -151.766 199.889 C-152.971 199.029 -154.177 198.17 -155.383 197.311 C-156.924 196.211 -158.462 195.106 -160 194 C-160.762 193.584 -161.524 193.167 -162.309 192.738 C-165.63 189.325 -165.379 184.691 -165.507 180.188 C-165.28 176.421 -164.789 173.919 -162.295 171.014 C-157.707 167.158 -152.555 164.226 -147.329 161.325 C-144.425 159.673 -141.783 157.77 -139.125 155.75 C-135.093 152.788 -131.034 149.872 -126.938 147 C-126.376 146.601 -125.815 146.203 -125.237 145.792 C-121.232 143 -121.232 143 -119 143 C-119 157.19 -119 171.38 -119 186 C-125 189 -125 189 -128 190 C-128.818 193.271 -128.958 195.748 -128 199 C-125.293 201.35 -125.293 201.35 -121.953 203.312 C-120.846 204.01 -119.739 204.707 -118.599 205.426 C-117.741 205.945 -116.884 206.465 -116 207 C-116.016 206.367 -116.031 205.734 -116.047 205.081 C-116.424 189.631 -116.705 174.182 -116.881 158.728 C-116.968 151.254 -117.087 143.783 -117.282 136.311 C-117.453 129.793 -117.562 123.278 -117.6 116.758 C-117.622 113.309 -117.673 109.866 -117.797 106.418 C-118.524 85.509 -118.524 85.509 -114.334 79.684 C-110.38 75.857 -105.949 73.287 -100.989 70.968 C-98.36 69.689 -96.102 68.043 -93.789 66.266 C-93.088 65.759 -92.388 65.252 -91.666 64.73 C-90.992 64.242 -90.319 63.753 -89.625 63.25 C-88.873 62.706 -88.121 62.162 -87.346 61.602 C-83.345 58.707 -79.357 55.796 -75.375 52.875 C-70.428 49.27 -65.386 45.811 -60.335 42.354 C-49.786 35.127 -39.341 27.75 -29.02 20.203 C-24.939 17.226 -20.845 14.269 -16.75 11.312 C-15.993 10.765 -15.236 10.218 -14.455 9.655 C-12.999 8.603 -11.542 7.552 -10.084 6.502 C-8.697 5.503 -7.313 4.5 -5.932 3.494 C-1.11 0 -1.11 0 0 0 Z " fill="#FAFBFB" transform="translate(255,47)"/>
<path d="M0 0 C0.66 0 1.32 0 2 0 C2 54.12 2 108.24 2 164 C-1.465 165.98 -1.465 165.98 -5 168 C-6.9 169.361 -8.776 170.758 -10.625 172.188 C-14.874 175.423 -19.161 178.538 -23.562 181.562 C-25.165 182.69 -25.165 182.69 -26.801 183.84 C-30 186 -30 186 -33.23 187.816 C-36.356 189.689 -38.657 191.2 -41 194 C-42.201 199.104 -42.292 203.787 -42 209 C-45.102 208.39 -47.163 207.399 -49.723 205.559 C-50.421 205.061 -51.118 204.564 -51.837 204.052 C-52.572 203.519 -53.306 202.986 -54.062 202.438 C-54.823 201.893 -55.583 201.349 -56.366 200.788 C-58.582 199.198 -60.792 197.601 -63 196 C-64.048 195.243 -65.096 194.487 -66.176 193.707 C-67.876 192.474 -69.568 191.229 -71.247 189.966 C-73.961 187.961 -73.961 187.961 -76.869 186.342 C-84.421 181.729 -84.421 181.729 -85.963 177.126 C-86.272 173.69 -86.24 170.415 -86.074 166.969 C-86.059 165.737 -86.043 164.505 -86.027 163.236 C-85.966 159.321 -85.828 155.413 -85.688 151.5 C-85.626 148.839 -85.582 146.177 -85.537 143.516 C-85.416 137.008 -85.232 130.505 -85 124 C-75.317 129.76 -66.243 136.484 -57.202 143.193 C-53.535 145.908 -49.807 148.484 -46 151 C-44.032 152.361 -42.074 153.736 -40.125 155.125 C-38.675 156.15 -38.675 156.15 -37.195 157.195 C-36.109 158.089 -36.109 158.089 -35 159 C-35 159.66 -35 160.32 -35 161 C-33.68 161.33 -32.36 161.66 -31 162 C-31.01 161.286 -31.02 160.572 -31.031 159.836 C-31.274 142.442 -31.456 125.049 -31.57 107.653 C-31.627 99.241 -31.704 90.83 -31.83 82.418 C-31.94 75.084 -32.01 67.752 -32.035 60.417 C-32.049 56.535 -32.083 52.655 -32.163 48.773 C-32.238 45.115 -32.261 41.46 -32.244 37.801 C-32.249 35.827 -32.308 33.853 -32.369 31.88 C-32.26 23.34 -32.26 23.34 -28.65 19.5 C-25.85 17.44 -23.026 15.705 -20 14 C-18.258 12.819 -16.524 11.624 -14.805 10.41 C-13.163 9.293 -11.519 8.177 -9.875 7.062 C-8.205 5.929 -6.536 4.795 -4.867 3.66 C-4.146 3.172 -3.426 2.683 -2.683 2.18 C-1.049 1.107 -1.049 1.107 0 0 Z " fill="#F9FAFA" transform="translate(113,16)"/>
<path d="M0 0 C0.33 0 0.66 0 1 0 C1 41.25 1 82.5 1 125 C6.207 121.529 11.32 118.098 16.375 114.438 C20.538 111.433 24.734 108.487 28.984 105.605 C29.836 105.028 30.688 104.451 31.565 103.856 C33.242 102.722 34.921 101.592 36.603 100.467 C43.267 96.178 43.267 96.178 48 90 C49 91 49 91 49.114 92.766 C49.106 93.889 49.106 93.889 49.098 95.035 C49.093 96.248 49.093 96.248 49.088 97.486 C49.075 98.762 49.075 98.762 49.062 100.062 C49.058 100.917 49.053 101.771 49.049 102.65 C49.037 104.767 49.019 106.883 49 109 C48.34 109 47.68 109 47 109 C47 109.66 47 110.32 47 111 C44.557 112.878 42.104 114.638 39.562 116.375 C37.999 117.461 36.435 118.547 34.871 119.633 C34.064 120.19 33.257 120.747 32.425 121.321 C28.642 123.94 24.884 126.595 21.125 129.25 C20.419 129.745 19.713 130.24 18.986 130.75 C15.825 132.972 12.692 135.212 9.629 137.566 C8.658 138.308 7.688 139.049 6.688 139.812 C5.866 140.458 5.045 141.104 4.199 141.77 C2 143 2 143 0.105 142.977 C-2.988 141.542 -5.648 139.584 -8.375 137.562 C-9.633 136.647 -10.891 135.732 -12.148 134.816 C-13.109 134.113 -13.109 134.113 -14.089 133.395 C-17.042 131.239 -20.021 129.121 -23 127 C-24.154 126.176 -25.307 125.352 -26.461 124.527 C-28.924 122.768 -31.387 121.011 -33.852 119.254 C-34.799 118.578 -34.799 118.578 -35.766 117.889 C-36.971 117.029 -38.177 116.17 -39.383 115.311 C-40.924 114.211 -42.462 113.106 -44 112 C-45.143 111.375 -45.143 111.375 -46.309 110.738 C-49.63 107.325 -49.379 102.691 -49.507 98.188 C-49.28 94.421 -48.789 91.919 -46.295 89.014 C-41.707 85.158 -36.555 82.226 -31.329 79.325 C-28.425 77.673 -25.783 75.77 -23.125 73.75 C-19.093 70.788 -15.034 67.872 -10.938 65 C-10.376 64.601 -9.815 64.203 -9.237 63.792 C-5.232 61 -5.232 61 -3 61 C-3 75.19 -3 89.38 -3 104 C-9 107 -9 107 -12 108 C-12.877 111.509 -12.583 113.112 -12 117 C-8.04 119.64 -4.08 122.28 0 125 C0 83.75 0 42.5 0 0 Z " fill="#D3DADE" transform="translate(139,129)"/>
<path d="M0 0 C7.06 3.53 13.404 7.169 19.566 12.125 C22.214 14.165 24.95 15.987 27.75 17.812 C32.351 20.834 36.769 24.015 41.125 27.375 C41.682 27.804 42.238 28.233 42.812 28.675 C48.829 33.36 48.829 33.36 49.758 36.836 C50.194 41.039 50.193 43.918 49 48 C44.659 53.104 38.662 56.538 33 60 C32.01 60.66 31.02 61.32 30 62 C29.833 64.435 29.833 64.435 30 67.188 C29.756 70.806 29.626 72.41 26.953 74.93 C25.083 76.059 23.182 77.137 21.258 78.172 C16.978 80.574 13.309 83.543 9.505 86.625 C6.303 89.167 3.911 90.436 0 92 C0 61.64 0 31.28 0 0 Z " fill="#F7F8F9" transform="translate(139,33)"/>
<path d="M0 0 C0 14.19 0 28.38 0 43 C-3.493 41.253 -4.508 40.721 -6.688 37.875 C-7.451 36.926 -8.214 35.977 -9 35 C-9.33 35 -9.66 35 -10 35 C-10.33 41.27 -10.66 47.54 -11 54 C-16.621 51.752 -16.621 51.752 -19.453 49.609 C-20.376 48.92 -20.376 48.92 -21.317 48.217 C-21.955 47.733 -22.593 47.249 -23.25 46.75 C-24.584 45.754 -25.918 44.759 -27.254 43.766 C-27.896 43.288 -28.538 42.81 -29.2 42.318 C-32.121 40.179 -35.129 38.185 -38.168 36.219 C-40.172 34.886 -42.087 33.459 -44 32 C-39.636 25.936 -34.024 22.264 -27.875 18.125 C-25.892 16.775 -23.911 15.423 -21.93 14.07 C-20.954 13.405 -19.977 12.741 -18.972 12.056 C-15.024 9.325 -11.149 6.502 -7.282 3.66 C-2.25 0 -2.25 0 0 0 Z " fill="#F7F9F9" transform="translate(136,190)"/>
<path d="M0 0 C0.66 0.33 1.32 0.66 2 1 C2 1.66 2 2.32 2 3 C2.99 3.33 3.98 3.66 5 4 C5.659 4.663 5.659 4.663 6.332 5.34 C9.317 8.311 13.11 10.214 16.699 12.379 C17.458 12.914 18.218 13.449 19 14 C19 14.66 19 15.32 19 16 C19.99 16 20.98 16 22 16 C23.563 17.375 23.563 17.375 25 19 C26.997 20.997 28.505 21.761 31 23 C32.44 23.967 33.857 24.968 35.25 26 C35.956 26.516 36.663 27.031 37.391 27.562 C37.922 28.037 38.453 28.511 39 29 C39 29.66 39 30.32 39 31 C40.32 31 41.64 31 43 31 C43 31.66 43 32.32 43 33 C52.616 31.988 59.326 26.421 67 21 C72.681 17 72.681 17 75 17 C75.495 15.515 75.495 15.515 76 14 C78.293 12.352 78.293 12.352 81.188 10.625 C86.308 7.479 90.744 4.256 95 0 C95.136 1.56 95.233 3.124 95.312 4.688 C95.371 5.558 95.429 6.428 95.488 7.324 C94.474 12.884 89.314 15.555 84.973 18.637 C83.006 19.992 81.036 21.342 79.062 22.688 C76.994 24.111 74.927 25.536 72.859 26.961 C71.857 27.65 70.855 28.34 69.822 29.05 C66.127 31.603 62.463 34.196 58.812 36.812 C57.767 37.561 56.722 38.31 55.645 39.082 C53.035 40.917 53.035 40.917 50.887 42.824 C49 44 49 44 47.148 43.965 C44.022 42.561 41.365 40.593 38.625 38.562 C37.367 37.647 36.109 36.732 34.852 35.816 C34.211 35.347 33.571 34.878 32.911 34.395 C29.958 32.239 26.979 30.121 24 28 C22.846 27.176 21.693 26.352 20.539 25.527 C18.076 23.768 15.613 22.011 13.148 20.254 C12.201 19.578 12.201 19.578 11.234 18.889 C10.029 18.029 8.823 17.17 7.617 16.311 C6.076 15.211 4.538 14.106 3 13 C2.203 12.518 1.407 12.036 0.586 11.539 C-1 10 -1 10 -1.172 7.52 C-1.033 6.626 -0.893 5.733 -0.75 4.812 C-0.621 3.911 -0.492 3.01 -0.359 2.082 C-0.241 1.395 -0.122 0.708 0 0 Z " fill="#EDF1F3" transform="translate(92,228)"/>
<path d="M0 0 C0.33 0 0.66 0 1 0 C1 20.13 1 40.26 1 61 C-2.751 59.125 -5.8 56.949 -9.062 54.375 C-13.102 51.227 -17.158 48.121 -21.312 45.125 C-22.181 44.475 -23.05 43.826 -23.945 43.156 C-26.345 41.463 -28.722 39.962 -31.242 38.469 C-42.184 31.646 -42.184 31.646 -43.709 26.7 C-44.377 21.378 -43.844 16.273 -43 11 C-37.522 14.535 -32.279 18.254 -27.164 22.297 C-25.235 23.815 -23.285 25.29 -21.312 26.75 C-17.371 29.692 -13.496 32.716 -9.625 35.75 C-9.005 36.234 -8.386 36.719 -7.747 37.218 C-5.396 39.066 -3.117 40.883 -1 43 C-0.67 28.81 -0.34 14.62 0 0 Z " fill="#D1D8DC" transform="translate(254,191)"/>
<path d="M0 0 C0.33 0 0.66 0 1 0 C1.152 7.475 1.257 14.949 1.33 22.424 C1.36 24.968 1.401 27.511 1.453 30.054 C1.525 33.708 1.559 37.361 1.586 41.016 C1.617 42.154 1.648 43.293 1.68 44.466 C1.681 47.432 1.635 50.103 1 53 C-1.905 55.66 -1.905 55.66 -5 57 C-12.525 62.11 -19.826 67.526 -27.135 72.937 C-29.421 74.628 -31.71 76.314 -34 78 C-34.683 78.509 -35.365 79.018 -36.069 79.542 C-40.774 83 -40.774 83 -43 83 C-44.897 72.176 -44.897 72.176 -44 67 C-41.345 63.48 -37.864 61.998 -34 60 C-32.162 58.659 -30.351 57.282 -28.562 55.875 C-23.109 51.754 -17.517 47.859 -11.875 44 C-11.033 43.424 -10.19 42.847 -9.323 42.253 C-3.273 38.137 -3.273 38.137 -1 37 C-0.67 24.79 -0.34 12.58 0 0 Z " fill="#D6DEE2" transform="translate(254,47)"/>
<path d="M0 0 C4.204 1.458 7.57 3.637 11.125 6.25 C11.712 6.675 12.3 7.101 12.905 7.539 C19.227 12.129 25.506 16.781 31.778 21.44 C32.558 22.018 33.337 22.596 34.141 23.191 C34.837 23.709 35.533 24.227 36.251 24.76 C37.984 26.056 37.984 26.056 40 27 C40 27.66 40 28.32 40 29 C41.32 29.66 42.64 30.32 44 31 C43.67 35.95 43.34 40.9 43 46 C39.474 45.118 38.077 44.571 35.277 42.559 C34.579 42.061 33.882 41.564 33.163 41.052 C32.428 40.519 31.694 39.986 30.938 39.438 C30.177 38.893 29.417 38.349 28.634 37.788 C26.418 36.198 24.208 34.601 22 33 C20.952 32.243 19.904 31.487 18.824 30.707 C17.064 29.431 15.316 28.137 13.582 26.824 C10.984 24.909 10.984 24.909 7.887 23.332 C4.588 21.433 2.357 20.004 0 17 C-1.311 11.417 -0.634 5.638 0 0 Z " fill="#E0E9EE" transform="translate(28,179)"/>
<path d="M0 0 C0.33 0 0.66 0 1 0 C1.567 3.478 1.726 6.536 1 10 C-1.535 13.032 -4.668 14.92 -8 17 C-9.484 18.034 -10.963 19.076 -12.438 20.125 C-13.255 20.688 -14.072 21.252 -14.914 21.832 C-17.452 23.615 -19.96 25.427 -22.461 27.262 C-23.258 27.845 -24.056 28.428 -24.877 29.029 C-26.477 30.201 -28.074 31.377 -29.668 32.557 C-33.32 35.226 -36.63 37.63 -41 39 C-41.25 33.375 -41.25 33.375 -39 30 C-37.333 29 -35.667 28 -34 27 C-32.145 25.441 -30.342 23.839 -28.551 22.207 C-27 21 -27 21 -25 21 C-24.67 20.34 -24.34 19.68 -24 19 C-20.828 15.096 -17.842 14.117 -13 13 C-13 12.34 -13 11.68 -13 11 C-7.588 7 -7.588 7 -5 7 C-5 6.34 -5 5.68 -5 5 C-4.34 5 -3.68 5 -3 5 C-2.67 4.01 -2.34 3.02 -2 2 C-1.34 2 -0.68 2 0 2 C0 1.34 0 0.68 0 0 Z " fill="#EDF1F3" transform="translate(253,90)"/>
<path d="M0 0 C0.33 0 0.66 0 1 0 C1 2.31 1 4.62 1 7 C1.557 7.268 2.114 7.536 2.688 7.812 C11.095 12.13 18.339 17.737 25.469 23.863 C28 26.081 28 26.081 31 28 C32.235 28.825 33.464 29.659 34.688 30.5 C35.31 30.923 35.933 31.346 36.574 31.781 C37.045 32.183 37.515 32.586 38 33 C38 33.66 38 34.32 38 35 C38.99 34.67 39.98 34.34 41 34 C42.354 36.709 42.065 39.009 42 42 C36.665 40.584 33.048 38.112 28.75 34.812 C27.417 33.812 26.084 32.812 24.75 31.812 C24.107 31.328 23.464 30.843 22.801 30.344 C20.485 28.616 18.126 26.957 15.75 25.312 C14.984 24.763 14.219 24.214 13.43 23.648 C10.944 21.912 10.944 21.912 7.945 20.289 C4.787 18.384 2.395 16.814 0 14 C-0.917 9.198 -0.671 4.824 0 0 Z " fill="#E9EDEF" transform="translate(28,182)"/>
<path d="M0 0 C1.003 4.707 1.765 9.416 0 14 C-4.309 19.121 -10.347 22.543 -16 26 C-16.99 26.66 -17.98 27.32 -19 28 C-19.583 30.656 -19.583 30.656 -19.688 33.625 C-19.786 35.129 -19.786 35.129 -19.887 36.664 C-19.943 37.82 -19.943 37.82 -20 39 C-20.66 38.67 -21.32 38.34 -22 38 C-21.916 37.047 -21.832 36.095 -21.746 35.113 C-21.644 33.859 -21.542 32.605 -21.438 31.312 C-21.333 30.071 -21.229 28.83 -21.121 27.551 C-20.851 24.135 -20.851 24.135 -21.598 21.418 C-22.174 17.956 -21.554 16.144 -20 13 C-17.918 10.972 -15.611 9.406 -13.188 7.812 C-12.571 7.388 -11.954 6.963 -11.318 6.525 C-1.769 0 -1.769 0 0 0 Z " fill="#D7DEE3" transform="translate(188,67)"/>
<path d="M0 0 C6.662 3.034 12.161 6.905 17.938 11.375 C19.632 12.677 21.329 13.976 23.027 15.273 C24.257 16.213 24.257 16.213 25.511 17.171 C28.708 19.521 32.02 21.659 35.385 23.76 C35.918 24.169 36.451 24.578 37 25 C37 25.66 37 26.32 37 27 C38.32 27.66 39.64 28.32 41 29 C40.67 33.95 40.34 38.9 40 44 C38.68 43.67 37.36 43.34 36 43 C36.66 42.67 37.32 42.34 38 42 C38.108 40.397 38.186 38.793 38.25 37.188 C38.296 36.294 38.343 35.401 38.391 34.48 C38.239 31.86 38.239 31.86 36.109 30.238 C34.764 29.449 33.395 28.698 32 28 C30.655 27.015 29.324 26.012 28 25 C27.051 24.288 26.102 23.577 25.125 22.844 C22.083 20.563 19.042 18.281 16 16 C15.216 15.453 14.432 14.907 13.625 14.344 C13.089 13.9 12.553 13.457 12 13 C12 12.34 12 11.68 12 11 C10.917 10.907 10.917 10.907 9.812 10.812 C6.058 9.728 4.496 7.968 2 5 C0.688 2.188 0.688 2.188 0 0 Z " fill="#D1DADE" transform="translate(31,181)"/>
<path d="M0 0 C4.612 0.461 7.909 1.815 11.875 4.062 C14.546 5.346 14.546 5.346 20 6 C20 10.29 20 14.58 20 19 C15.01 17.299 10.946 14.777 6.625 11.75 C5.586 11.023 4.547 10.296 3.477 9.547 C0.412 6.396 0.2 4.314 0 0 Z " fill="#F0F3F5" transform="translate(234,231)"/>
<path d="M0 0 C0.33 0.66 0.66 1.32 1 2 C-0.65 2.33 -2.3 2.66 -4 3 C-2.68 2.01 -1.36 1.02 0 0 Z M-5 3 C-4.67 3.66 -4.34 4.32 -4 5 C-4.66 4.67 -5.32 4.34 -6 4 C-5.67 3.67 -5.34 3.34 -5 3 Z M-6 5 C-7.434 8.565 -9.057 9.962 -12.312 11.938 C-15.15 13.727 -17.594 15.412 -19.875 17.875 C-20.576 18.576 -21.278 19.278 -22 20 C-22.99 20 -23.98 20 -25 20 C-25 20.66 -25 21.32 -25 22 C-26.32 22.33 -27.64 22.66 -29 23 C-29 23.66 -29 24.32 -29 25 C-30.477 26.284 -31.958 27.566 -33.492 28.781 C-35.138 30.068 -35.138 30.068 -37 32 C-37.33 32 -37.66 32 -38 32 C-38 35.96 -38 39.92 -38 44 C-38.66 44 -39.32 44 -40 44 C-41.897 33.176 -41.897 33.176 -41 28 C-38.343 24.478 -34.863 23.004 -31 21 C-28.974 19.535 -26.974 18.034 -25 16.5 C-21.167 13.616 -17.329 10.742 -13.438 7.938 C-12.652 7.369 -11.867 6.801 -11.059 6.215 C-9 5 -9 5 -6 5 Z " fill="#D1D9DE" transform="translate(251,86)"/>
<path d="M0 0 C6.131 3.928 11.645 8.068 17 13 C13.834 13.899 12.167 13.817 9 13 C8.01 13.33 7.02 13.66 6 14 C5.34 13.67 4.68 13.34 4 13 C3.34 14.98 2.68 16.96 2 19 C1.34 18.67 0.68 18.34 0 18 C0 12.06 0 6.12 0 0 Z " fill="#B6BABC" transform="translate(211,202)"/>
<path d="M0 0 C2.537 2.206 4.495 3.99 6 7 C5.072 6.649 4.144 6.299 3.188 5.938 C0.02 4.676 0.02 4.676 -3 6 C-4.341 5.35 -5.675 4.684 -7 4 C-7.99 4.495 -7.99 4.495 -9 5 C-9.66 4.67 -10.32 4.34 -11 4 C-11.33 4.99 -11.66 5.98 -12 7 C-13.32 7 -14.64 7 -16 7 C-17.125 5.25 -17.125 5.25 -18 3 C-17.375 0.812 -17.375 0.812 -16 -1 C-10.707 -3.19 -5.177 -1.941 0 0 Z " fill="#C4CACD" transform="translate(231,216)"/>
<path d="M0 0 C0.99 0.33 1.98 0.66 3 1 C2.01 1 1.02 1 0 1 C0 0.67 0 0.34 0 0 Z M-5.875 1.875 C-4.926 2.246 -3.977 2.618 -3 3 C-2.01 2.67 -1.02 2.34 0 2 C4.991 3.576 9.074 5.611 12 10 C11.215 9.783 10.43 9.567 9.621 9.344 C1.413 7.053 1.413 7.053 -7 7 C-7.99 8.485 -7.99 8.485 -9 10 C-10.938 9.25 -10.938 9.25 -13 8 C-13.75 5.875 -13.75 5.875 -14 4 C-9.788 0.779 -9.788 0.779 -5.875 1.875 Z M-16 3 C-14 4 -14 4 -14 4 Z M-3 7 C-1 8 -1 8 -1 8 Z " fill="#CFD8DC" transform="translate(232,218)"/>
<path d="M0 0 C3.957 1.809 7.517 4.217 11.125 6.625 C11.787 7.067 12.449 7.508 13.132 7.963 C19.411 12.198 25.632 16.632 31 22 C30.67 22.99 30.34 23.98 30 25 C29.34 24.01 28.68 23.02 28 22 C26.332 21.022 24.659 20.05 22.961 19.125 C19.601 17.198 16.541 14.872 13.438 12.562 C12.804 12.098 12.17 11.633 11.518 11.154 C7.562 8.233 3.66 5.287 0 2 C0 1.34 0 0.68 0 0 Z " fill="#D3DCE0" transform="translate(93,223)"/>
<path d="M0 0 C0.33 0.66 0.66 1.32 1 2 C0.34 1.67 -0.32 1.34 -1 1 C-0.67 0.67 -0.34 0.34 0 0 Z M-4 3 C-3.34 3.33 -2.68 3.66 -2 4 C-3.559 5.275 -5.123 6.545 -6.688 7.812 C-7.558 8.52 -8.428 9.228 -9.324 9.957 C-15.929 15 -15.929 15 -19 15 C-19.33 15.99 -19.66 16.98 -20 18 C-22.216 19.711 -24.462 20.753 -27 22 C-27.66 21.67 -28.32 21.34 -29 21 C-11.66 7.851 -11.66 7.851 -4 3 Z M-31 22 C-30.34 22.33 -29.68 22.66 -29 23 C-32.96 25.475 -32.96 25.475 -37 28 C-36 25 -36 25 -33.562 23.25 C-32.717 22.838 -31.871 22.425 -31 22 Z " fill="#D0D8DC" transform="translate(183,225)"/>
<path d="M0 0 C0.99 0.66 1.98 1.32 3 2 C1.333 3.667 -0.333 5.333 -2 7 C-2.743 7.763 -3.485 8.526 -4.25 9.312 C-6 11 -6 11 -7 11 C-7 14.96 -7 18.92 -7 23 C-7.66 23 -8.32 23 -9 23 C-10.956 11.841 -10.956 11.841 -10 7 C-7.171 3.568 -4.049 1.765 0 0 Z " fill="#C5CCCF" transform="translate(220,107)"/>
<path d="M0 0 C0.66 0.33 1.32 0.66 2 1 C1.381 1.206 0.762 1.412 0.125 1.625 C-2.882 3.57 -3.022 5.609 -4 9 C-4.97 11.015 -5.962 13.019 -7 15 C-7.99 15 -8.98 15 -10 15 C-10.426 11.899 -10.599 9.085 -10 6 C-7.246 2.824 -3.932 1.311 0 0 Z " fill="#D1DADE" transform="translate(178,74)"/>
<path d="M0 0 C2.475 0.99 2.475 0.99 5 2 C5.33 2.99 5.66 3.98 6 5 C6.99 5.33 7.98 5.66 9 6 C6.312 8.252 4.354 9.882 1 11 C1 12.65 1 14.3 1 16 C0.67 16 0.34 16 0 16 C0 10.72 0 5.44 0 0 Z " fill="#949596" transform="translate(126,226)"/>
<path d="M0 0 C0.66 0 1.32 0 2 0 C2.222 1.623 2.427 3.249 2.625 4.875 C2.741 5.78 2.857 6.685 2.977 7.617 C2.984 8.404 2.992 9.19 3 10 C2.34 10.66 1.68 11.32 1 12 C-2.125 11.625 -2.125 11.625 -5 11 C-4.625 8.562 -4.625 8.562 -4 6 C-3.34 5.67 -2.68 5.34 -2 5 C-1.278 3.356 -0.606 1.689 0 0 Z M-5 12 C-4.34 12.33 -3.68 12.66 -3 13 C-3.33 13.66 -3.66 14.32 -4 15 C-4.66 14.67 -5.32 14.34 -6 14 C-5.67 13.34 -5.34 12.68 -5 12 Z " fill="#EDF1F4" transform="translate(185,71)"/>
<path d="M0 0 C5.566 2.365 9.586 5.911 14 10 C13.34 10.66 12.68 11.32 12 12 C6.63 9.826 3.221 6.74 0 2 C0 1.34 0 0.68 0 0 Z " fill="#CDD5D9" transform="translate(31,181)"/>
<path d="M0 0 C2.31 1.98 4.62 3.96 7 6 C5 8 5 8 2 9 C1.67 11.97 1.34 14.94 1 18 C0.67 18 0.34 18 0 18 C0 12.06 0 6.12 0 0 Z M7 7 C7.66 7 8.32 7 9 7 C8.67 7.66 8.34 8.32 8 9 C7.67 8.34 7.34 7.68 7 7 Z " fill="#919293" transform="translate(211,202)"/>
<path d="M0 0 C4.75 0.75 4.75 0.75 7 3 C6.983 5.593 6.862 8.053 6.625 10.625 C6.568 11.331 6.512 12.038 6.453 12.766 C6.312 14.511 6.157 16.256 6 18 C4.68 17.67 3.36 17.34 2 17 C2.66 16.67 3.32 16.34 4 16 C4.081 14.397 4.139 12.792 4.188 11.188 C4.222 10.294 4.257 9.401 4.293 8.48 C3.943 5.516 3.182 4.918 1 3 C0.67 2.01 0.34 1.02 0 0 Z " fill="#C7CFD2" transform="translate(65,207)"/>
<path d="M0 0 C0.33 0.66 0.66 1.32 1 2 C-0.65 2.33 -2.3 2.66 -4 3 C-2.68 2.01 -1.36 1.02 0 0 Z M-5 3 C-4.67 3.66 -4.34 4.32 -4 5 C-4.66 4.67 -5.32 4.34 -6 4 C-5.67 3.67 -5.34 3.34 -5 3 Z M-6 5 C-7.75 8.875 -7.75 8.875 -10 10 C-10.99 9.34 -11.98 8.68 -13 8 C-9.375 5 -9.375 5 -6 5 Z " fill="#D2DBDF" transform="translate(251,86)"/>
<path d="M0 0 C4.833 0.414 6.827 2.464 10 6 C9.67 6.99 9.34 7.98 9 9 C8.34 8.01 7.68 7.02 7 6 C5.282 4.795 5.282 4.795 3.375 3.812 C2.261 3.214 1.147 2.616 0 2 C0 1.34 0 0.68 0 0 Z " fill="#D1DADE" transform="translate(114,239)"/>
<path d="M0 0 C1.32 0.66 2.64 1.32 4 2 C1.03 3.98 1.03 3.98 -2 6 C-2.66 5.67 -3.32 5.34 -4 5 C-2.68 3.35 -1.36 1.7 0 0 Z M-5 6 C-4.67 6 -4.34 6 -4 6 C-4 7.65 -4 9.3 -4 11 C-4.33 11 -4.66 11 -5 11 C-5 9.35 -5 7.7 -5 6 Z " fill="#484A4A" transform="translate(131,231)"/>
<path d="M0 0 C-1.293 2.884 -2.659 4.872 -5 7 C-5.188 4.625 -5.188 4.625 -5 2 C-2 0 -2 0 0 0 Z " fill="#C5CBCF" transform="translate(173,78)"/>
<path d="M0 0 C0.66 0.33 1.32 0.66 2 1 C0.35 2.65 -1.3 4.3 -3 6 C-2.427 3.133 -2.139 2.139 0 0 Z M2 1 C4 2 4 2 4 2 Z " fill="#757777" transform="translate(130,230)"/>
<path d="M0 0 C1.98 0.99 1.98 0.99 4 2 C4 2.99 4 3.98 4 5 C3.01 5 2.02 5 1 5 C0.67 3.35 0.34 1.7 0 0 Z " fill="#D7E0E4" transform="translate(28,179)"/>
<path d="M0 0 C0.99 0.33 1.98 0.66 3 1 C2.34 1.66 1.68 2.32 1 3 C0.67 2.01 0.34 1.02 0 0 Z M3 2 C4.485 2.99 4.485 2.99 6 4 C5.01 4.495 5.01 4.495 4 5 C3.34 4.34 2.68 3.68 2 3 C2.33 2.67 2.66 2.34 3 2 Z " fill="#BEC4C7" transform="translate(127,247)"/>
<path d="M0 0 C2.475 0.99 2.475 0.99 5 2 C2 4 2 4 0 4 C0 2.68 0 1.36 0 0 Z " fill="#ACAFB1" transform="translate(126,226)"/>
</svg>